<svg xmlns="http://www.w3.org/2000/svg" viewBox="0 -0.5 26 32" shape-rendering="crispEdges">

<path stroke="#000000" d="M2 0h22M1 1h1M24 1h1M0 2h1M25 2h1M0 3h1M25 3h1M0 4h1M8 4h1M16 4h1M25 4h1M0 5h1M8 5h1M16 5h1M25 5h1M0 6h1M8 6h1M11 6h3M16 6h1M25 6h1M0 7h1M7 7h1M10 7h2M13 7h2M17 7h1M25 7h1M0 8h1M3 8h1M7 8h1M10 8h1M13 8h2M17 8h1M21 8h1M25 8h1M0 9h1M4 9h1M7 9h1M9 9h2M13 9h3M17 9h1M20 9h1M25 9h1M0 10h1M5 10h1M7 10h1M9 10h1M11 10h5M17 10h1M19 10h1M25 10h1M0 11h1M5 11h1M7 11h1M9 11h2M13 11h3M17 11h1M19 11h1M25 11h1M0 12h1M5 12h1M8 12h1M10 12h1M12 12h3M16 12h1M19 12h1M25 12h1M0 13h1M5 13h1M9 13h3M13 13h3M19 13h1M25 13h1M0 14h1M6 14h1M10 14h1M12 14h3M18 14h1M25 14h1M0 15h1M7 15h2M11 15h7M25 15h1M0 16h1M8 16h4M13 16h4M25 16h1M0 17h1M11 17h3M25 17h1M0 18h1M9 18h7M25 18h1M0 19h1M7 19h2M11 19h3M16 19h2M25 19h1M0 20h1M6 20h2M10 20h5M17 20h2M25 20h1M0 21h1M5 21h1M9 21h1M11 21h1M13 21h1M15 21h1M19 21h1M25 21h1M0 22h1M5 22h1M8 22h1M11 22h1M13 22h1M16 22h1M19 22h1M25 22h1M0 23h1M5 23h1M8 23h1M16 23h1M19 23h1M25 23h1M0 24h1M5 24h1M8 24h1M16 24h1M19 24h1M25 24h1M0 25h1M5 25h1M8 25h1M16 25h1M19 25h1M25 25h1M0 26h1M5 26h1M8 26h1M16 26h1M19 26h1M25 26h1M0 27h1M8 27h1M16 27h1M25 27h1M0 28h1M25 28h1M0 29h1M25 29h1M1 30h1M24 30h1M2 31h22" />
<path stroke="#ff0000" d="M2 1h22M1 2h1M24 2h1M1 3h1M24 3h1M1 4h1M24 4h1M1 5h1M24 5h1M1 6h1M24 6h1M1 7h1M24 7h1M1 8h1M12 8h1M24 8h1M1 9h1M11 9h1M24 9h1M1 10h1M24 10h1M1 11h1M11 11h1M24 11h1M1 12h1M24 12h1M1 13h1M12 13h1M24 13h1M1 14h1M24 14h1M1 15h1M24 15h1M1 16h1M24 16h1M1 17h1M24 17h1M1 18h1M24 18h1M1 19h1M24 19h1M1 20h1M24 20h1M1 21h1M24 21h1M1 22h1M24 22h1M1 23h1M24 23h1M1 24h1M24 24h1M1 25h1M24 25h1M1 26h1M24 26h1M1 27h1M24 27h1M1 28h1M24 28h1M1 29h1M24 29h1M2 30h22" />
<path stroke="#c0c0c0" d="M2 2h1M4 2h1M10 2h1M12 2h1M14 2h1M16 2h1M18 2h1M20 2h1M22 2h1M3 3h1M6 3h1M8 3h1M13 3h1M15 3h1M17 3h1M19 3h1M21 3h1M23 3h1M2 4h1M4 4h1M6 4h1M10 4h1M12 4h1M14 4h1M18 4h1M20 4h1M22 4h1M5 5h1M7 5h1M9 5h1M11 5h1M13 5h1M15 5h1M17 5h1M19 5h1M21 5h1M23 5h1M2 6h1M4 6h1M6 6h1M14 6h1M18 6h1M20 6h1M22 6h1M3 7h1M5 7h1M15 7h1M19 7h1M21 7h1M23 7h1M2 8h1M6 8h1M8 8h1M22 8h1M3 9h1M19 9h1M21 9h1M23 9h1M2 10h1M4 10h1M6 10h1M8 10h1M20 10h1M22 10h1M3 11h1M8 11h1M16 11h1M21 11h1M23 11h1M2 12h1M4 12h1M6 12h1M9 12h1M15 12h1M20 12h1M22 12h1M3 13h1M7 13h1M17 13h2M21 13h1M23 13h1M2 14h1M4 14h1M8 14h1M16 14h1M22 14h1M3 15h1M5 15h1M9 15h1M19 15h1M21 15h1M23 15h1M2 16h1M4 16h1M6 16h1M20 16h1M22 16h1M3 17h1M5 17h1M7 17h1M9 17h2M14 17h2M17 17h1M19 17h1M23 17h1M2 18h1M4 18h1M6 18h1M8 18h1M16 18h1M18 18h1M20 18h1M22 18h1M3 19h1M5 19h1M9 19h1M19 19h1M21 19h1M2 20h1M4 20h1M8 20h1M15 20h2M20 20h1M22 20h1M3 21h1M7 21h1M17 21h1M21 21h1M23 21h1M2 22h1M4 22h1M6 22h1M12 22h1M14 22h1M18 22h1M20 22h1M22 22h1M3 23h1M7 23h1M9 23h1M11 23h1M13 23h1M15 23h1M17 23h1M21 23h1M23 23h1M2 24h1M4 24h1M6 24h1M10 24h1M12 24h1M14 24h1M18 24h1M20 24h1M22 24h1M3 25h1M7 25h1M9 25h1M11 25h1M13 25h1M15 25h1M17 25h1M21 25h1M23 25h1M2 26h1M4 26h1M6 26h1M10 26h1M12 26h1M14 26h1M18 26h1M20 26h1M22 26h1M3 27h1M5 27h1M7 27h1M9 27h1M11 27h1M13 27h1M15 27h1M17 27h1M19 27h1M21 27h1M23 27h1M2 28h1M4 28h1M6 28h1M8 28h1M10 28h1M12 28h1M14 28h1M16 28h1M18 28h1M20 28h1M22 28h1M3 29h1M5 29h1M7 29h1M9 29h1M11 29h1M13 29h1M15 29h1M17 29h1M19 29h1M21 29h1M23 29h1" />
<path stroke="#00ffff" d="M3 2h1M6 2h1M8 2h1M2 3h1M5 3h1M7 3h1M9 3h1M11 3h1M3 4h1M2 5h1M4 5h1M6 5h1M10 5h1M12 5h1M3 6h1M9 6h1M2 7h1M4 7h1M6 7h1M8 7h1M9 8h1M16 8h1M18 8h1M2 9h1M6 9h1M8 9h1M3 10h1M16 10h1M18 10h1M2 11h1M4 11h1M6 11h1M3 12h1M18 12h1M2 13h1M4 13h1M6 13h1M20 13h1M3 14h1M7 14h1M17 14h1M19 14h1M21 14h1M2 15h1M4 15h1M6 15h1M18 15h1M20 15h1M3 16h1M5 16h1M7 16h1M17 16h1M19 16h1M21 16h1M23 16h1M2 17h1M4 17h1M6 17h1M8 17h1M16 17h1M18 17h1M20 17h1M22 17h1M3 18h1M5 18h1M7 18h1M17 18h1M19 18h1M21 18h1M23 18h1M2 19h1M4 19h1M6 19h1M15 19h1M18 19h1M20 19h1M22 19h1M3 20h1M5 20h1M9 20h1M19 20h1M21 20h1M23 20h1M2 21h1M4 21h1M6 21h1M8 21h1M12 21h1M18 21h1M20 21h1M22 21h1M3 22h1M7 22h1M10 22h1M15 22h1M17 22h1M21 22h1M23 22h1M2 23h1M4 23h1M6 23h1M10 23h1M12 23h1M14 23h1M18 23h1M20 23h1M22 23h1M3 24h1M7 24h1M9 24h1M11 24h1M13 24h1M15 24h1M17 24h1M21 24h1M23 24h1M2 25h1M4 25h1M6 25h1M10 25h1M12 25h1M14 25h1M18 25h1M20 25h1M22 25h1M3 26h1M7 26h1M9 26h1M11 26h1M13 26h1M15 26h1M17 26h1M21 26h1M23 26h1M2 27h1M4 27h1M6 27h1M10 27h1M12 27h1M14 27h1M18 27h1M20 27h1M22 27h1M3 28h1M5 28h1M7 28h1M9 28h1M11 28h1M13 28h1M15 28h1M17 28h1M19 28h1M21 28h1M23 28h1M2 29h1M4 29h1M6 29h1M8 29h1M10 29h1M12 29h1M14 29h1M16 29h1M18 29h1M20 29h1M22 29h1" />
<path stroke="#ffff00" d="M5 2h1M7 2h1M9 2h1M11 2h1M13 2h1M15 2h1M17 2h1M19 2h1M21 2h1M23 2h1M4 3h1M10 3h1M12 3h1M14 3h1M16 3h1M18 3h1M20 3h1M22 3h1M5 4h1M7 4h1M9 4h1M11 4h1M13 4h1M15 4h1M17 4h1M19 4h1M21 4h1M23 4h1M3 5h1M14 5h1M18 5h1M20 5h1M22 5h1M5 6h1M10 6h1M15 6h1M19 6h1M21 6h1M23 6h1M9 7h1M16 7h1M18 7h1M20 7h1M22 7h1M5 8h1M15 8h1M19 8h1M23 8h1M16 9h1M18 9h1M22 9h1M21 10h1M23 10h1M18 11h1M20 11h1M22 11h1M21 12h1M23 12h1M22 13h1M20 14h1M23 14h1M22 15h1M18 16h1M21 17h1M23 19h1" />
<path stroke="#808080" d="M7 6h1M17 6h1M4 8h1M20 8h1M5 9h1M7 12h1M17 12h1M8 13h1M16 13h1M5 14h1M9 14h1M15 14h1M10 15h1M12 16h1M10 19h1M14 19h1M10 21h1M14 21h1M16 21h1M9 22h1" />
<path stroke="#800000" d="M12 7h1M11 8h1M12 9h1M10 10h1M12 11h1M11 12h1M11 14h1" />
</svg>